<svg xmlns="http://www.w3.org/2000/svg" shape-rendering="geometricPrecision" text-rendering="geometricPrecision" image-rendering="optimizeQuality" fill-rule="evenodd" clip-rule="evenodd" viewBox="0 0 512 466.66"><path d="M410.93 171.33c-18.55 35.3-84.75 35.3-103.29 0-18.55 35.3-84.75 35.3-103.3 0-18.55 35.3-84.74 35.3-103.29 0C80.67 210.13.29 205.52.29 148.62c0-3.06-1.01-19.02.72-22.11l34.6-110.85C38.46 6.53 45.4.67 58.85.01L450.42 0c12.08 1.3 19.94 6.37 23.19 15.56l37.25 110.8c1.92 3.19.83 18.88.83 22.26 0 58.28-81.8 58.8-100.76 22.71zm66.14 47.75v220.49c0 7.43-3.06 14.22-7.97 19.12-4.9 4.9-11.69 7.97-19.12 7.97H62c-7.41 0-14.18-3.06-19.09-7.96h-.04c-4.9-4.9-7.96-11.67-7.96-19.13V219.3c7.5 1.4 15.11 1.81 22.37 1.5v218.77c0 1.28.55 2.46 1.4 3.31.84.87 2.03 1.4 3.32 1.4h84.96c-2.92-7.68-5.62-15.47-8.09-23.36-3.43-10.9-6.42-22.1-8.97-33.66a385.534 385.534 0 0 1-6.1-35.14l-.4-3.01c-2.75-21.1-5.69-43.66 14.73-54.09 6-3.05 15.03-5.09 21.75-6.86 3.12-.83 6.08-1.57 8.89-2.25.42 1.67.89 3.31 1.41 4.93a17.07 17.07 0 0 0-5.1 12.18c0 9.44 7.65 17.09 17.1 17.09 1.19 0 2.35-.12 3.47-.36a91.002 91.002 0 0 0 14.72 14.64 16.98 16.98 0 0 0-.48 4c0 9.44 7.66 17.09 17.09 17.09 5.14 0 9.73-2.26 12.87-5.84l-.16.17c2.93.91 5.91 1.67 8.96 2.27l-26.97 26.96-4.01 4.02 48.32 48.33 48.33-48.33-30.87-30.87c3.05-.59 6.05-1.33 8.99-2.22 3.12 3.39 7.59 5.51 12.56 5.51 9.44 0 17.09-7.65 17.09-17.09 0-1.22-.12-2.41-.37-3.56.64-.49 1.27-1 1.9-1.51a90.93 90.93 0 0 0 13.29-13.46c.95.17 1.91.25 2.9.25 9.44 0 17.09-7.65 17.09-17.09 0-4.5-1.74-8.6-4.59-11.65a92 92 0 0 0 1.3-4.38l17.53 4.58c8.98 2.35 11.49 1.94 18.38 8.52 16.88 16.13 10.7 41.49 5.27 63.77-.92 3.77-1.8 7.44-2.56 11.07-4.99 23.7-11.28 46.88-19.26 69.35h87.01c1.26 0 2.44-.54 3.3-1.4.87-.87 1.41-2.05 1.41-3.31V219.76c7.41.61 14.96.5 22.38-.68zm-297.32 64.05c15.42-4.33 25.5-10.28 36.17-34.59a5.733 5.733 0 0 1 5.28-3.46v-.02h70.52c2.63 0 4.86 1.77 5.55 4.18 2.73 7.57 5.97 14.26 9.92 19.72 3.74 5.14 8.12 9.23 13.41 12.03l12.05 3.14-.56 1.95c-.74-.1-1.5-.15-2.28-.15-9.44 0-17.09 7.65-17.09 17.09 0 4.29 1.58 8.21 4.19 11.21a79.45 79.45 0 0 1-10.47 10.36c-.22.18-.44.36-.66.53A17.024 17.024 0 0 0 295 321.3c-9.44 0-17.09 7.65-17.09 17.09 0 .37.01.73.04 1.09a78.235 78.235 0 0 1-14.54 2.67c-4.98.34-9.89.24-14.78-.05-5.01-.49-9.89-1.44-14.58-2.81-.09 1.69.02-.43.02-.9 0-9.44-7.65-17.09-17.09-17.09-3.93 0-7.55 1.32-10.43 3.55-4.06-3.3-7.79-6.99-11.13-11.02l-.02.01c2.42-2.94 3.87-6.71 3.87-10.82 0-9.44-7.66-17.09-17.09-17.09-.56 0-1.11.03-1.65.08.01 0-.71-2.6-.78-2.88zm150.06 11.68a8.209 8.209 0 1 1 0 16.42 8.209 8.209 0 1 1 0-16.42zm-147.63 0c4.53 0 8.2 3.68 8.2 8.21 0 4.54-3.67 8.21-8.2 8.21-4.54 0-8.22-3.67-8.22-8.21 0-4.53 3.68-8.21 8.22-8.21zm34.8 35.37c4.54 0 8.21 3.68 8.21 8.21 0 4.53-3.67 8.21-8.21 8.21-4.53 0-8.2-3.68-8.2-8.21 0-4.53 3.67-8.21 8.2-8.21zm78.02 0c4.54 0 8.21 3.68 8.21 8.21a8.209 8.209 0 1 1-16.42 0c0-4.53 3.68-8.21 8.21-8.21zm-66.77 52.88 27.76-27.76 27.77 27.76-27.77 27.77-27.76-27.77z"/></svg>